<svg id="Capa_1" data-name="Capa 1" xmlns="http://www.w3.org/2000/svg" xmlns:xlink="http://www.w3.org/1999/xlink" width="22.32" height="22.32" viewBox="0 0 22.32 22.32">
  <defs>
    <style>
      .cls-1 {
        fill: url(#Degradado_sin_nombre_19);
      }

      .cls-2 {
        fill: #fff;
      }
    </style>
    <linearGradient id="Degradado_sin_nombre_19" data-name="Degradado sin nombre 19" x1="-12.04" y1="20.74" x2="34.68" y2="1.45" gradientUnits="userSpaceOnUse">
      <stop offset="0" stop-color="#00f1d3"/>
      <stop offset="0.12" stop-color="#11b9b6"/>
      <stop offset="0.25" stop-color="#22839b"/>
      <stop offset="0.36" stop-color="#2e5c87"/>
      <stop offset="0.45" stop-color="#35447b"/>
      <stop offset="0.5" stop-color="#383b76"/>
      <stop offset="1" stop-color="#ff51d5"/>
    </linearGradient>
  </defs>
  <path class="cls-1" d="M11.16.57A10.59,10.59,0,0,0,6.91,20.86a9.24,9.24,0,0,1,.18-2.43c.21-.86,1.36-5.78,1.36-5.78A4.1,4.1,0,0,1,8.12,11c0-1.57.91-2.74,2-2.74a1.42,1.42,0,0,1,1.43,1.59,22.81,22.81,0,0,1-.94,3.76,1.65,1.65,0,0,0,1.67,2c2,0,3.36-2.58,3.36-5.63,0-2.32-1.56-4.06-4.41-4.06A5,5,0,0,0,6.06,11a3.06,3.06,0,0,0,.7,2.08.51.51,0,0,1,.15.59c0,.19-.17.66-.21.85a.36.36,0,0,1-.53.26c-1.48-.6-2.17-2.22-2.17-4,0-3,2.53-6.62,7.57-6.62,4,0,6.7,2.93,6.7,6.07,0,4.15-2.31,7.25-5.72,7.25A3,3,0,0,1,10,16.13s-.62,2.44-.75,2.92a8.72,8.72,0,0,1-1.06,2.26,10.59,10.59,0,1,0,3-20.74Z"/>
  <path class="cls-2" d="M6.91,20.86a9.8,9.8,0,0,1,.18-2.44c.21-.86,1.37-5.77,1.37-5.77A4,4,0,0,1,8.12,11c0-1.57.91-2.74,2-2.74a1.42,1.42,0,0,1,1.43,1.59,23.62,23.62,0,0,1-.93,3.75,1.63,1.63,0,0,0,1.67,2c2,0,3.35-2.57,3.35-5.63,0-2.32-1.56-4-4.4-4A5,5,0,0,0,6.06,11a3.07,3.07,0,0,0,.7,2.07c.2.24.23.33.15.59s-.16.67-.21.85a.37.37,0,0,1-.53.27c-1.48-.6-2.17-2.22-2.17-4,0-3,2.54-6.61,7.57-6.61,4,0,6.7,2.92,6.7,6.07,0,4.15-2.31,7.25-5.71,7.25A3,3,0,0,1,10,16.13S9.36,18.57,9.23,19a9,9,0,0,1-1.07,2.27Z"/>
</svg>
